<?xml version="1.0" standalone="no"?>
<!DOCTYPE svg PUBLIC "-//W3C//DTD SVG 20010904//EN"
 "http://www.w3.org/TR/2001/REC-SVG-20010904/DTD/svg10.dtd">
<svg version="1.0" xmlns="http://www.w3.org/2000/svg"
 width="360.000000pt" height="360.000000pt" viewBox="0 0 360.000000 360.000000"
 preserveAspectRatio="xMidYMid meet">

<g transform="translate(0.000000,360.000000) scale(0.100000,-0.100000)"
fill="#000000" stroke="none">
<path d="M260 2035 l0 -965 1540 0 1540 0 0 965 0 965 -1540 0 -1540 0 0 -965z
m2998 -2 l2 -883 -34 0 c-31 0 -54 22 -346 338 -172 185 -315 338 -319 340 -4
1 -117 -116 -251 -260 -134 -145 -246 -264 -250 -266 -4 -1 -177 202 -384 453
-207 250 -380 455 -384 454 -4 0 -92 -104 -197 -231 -104 -127 -302 -366 -438
-530 -232 -279 -251 -299 -278 -296 l-30 3 1 878 c0 482 0 879 0 882 0 3 654
4 1453 3 l1452 -3 3 -882z"/>
<path d="M2114 2720 c-116 -26 -178 -155 -125 -258 57 -112 194 -135 289 -48
55 50 69 143 32 216 -35 69 -120 108 -196 90z"/>
<path d="M740 755 l0 -155 25 0 c24 0 24 1 27 103 l3 102 63 -102 c57 -92 67
-103 93 -103 l29 0 0 155 0 155 -25 0 -25 0 0 -100 c0 -55 -3 -100 -7 -100 -5
0 -35 45 -68 100 -53 88 -63 100 -87 100 l-28 0 0 -155z"/>
<path d="M1102 890 c-84 -51 -83 -219 2 -271 42 -26 121 -25 164 1 84 51 83
219 -2 271 -42 26 -121 25 -164 -1z m145 -56 c23 -23 25 -31 21 -86 -5 -71
-28 -98 -83 -98 -55 0 -78 27 -83 98 -4 55 -2 63 21 86 18 18 37 26 62 26 25
0 44 -8 62 -26z"/>
<path d="M1504 897 c-2 -7 -3 -76 -2 -152 l3 -140 28 -3 27 -3 0 155 0 156
-25 0 c-14 0 -28 -6 -31 -13z"/>
<path d="M1625 898 c-3 -8 -4 -77 -3 -153 l3 -140 27 -3 27 -3 3 113 3 113 29
-112 c28 -110 29 -113 56 -113 26 0 29 4 49 78 11 42 24 92 27 110 11 53 16
30 17 -80 l2 -103 28 -3 27 -3 0 155 0 156 -45 0 -44 0 -15 -52 c-9 -29 -20
-74 -27 -100 -6 -27 -14 -48 -18 -48 -3 0 -17 44 -31 98 l-25 97 -43 3 c-29 2
-44 -1 -47 -10z"/>
<path d="M2016 763 c-31 -81 -56 -151 -56 -155 0 -5 13 -8 29 -8 23 0 30 6 37
33 10 32 11 32 76 35 l66 3 13 -36 c11 -29 18 -35 41 -35 16 0 28 5 28 13 -1
6 -26 75 -58 152 -55 135 -58 140 -88 143 l-31 3 -57 -148z m123 -25 c1 -14
-7 -18 -40 -18 -45 0 -45 0 -11 79 l15 36 18 -40 c9 -22 18 -48 18 -57z"/>
<path d="M2353 891 c-44 -28 -63 -69 -63 -138 0 -100 51 -153 147 -153 26 0
67 9 91 20 l42 19 0 61 0 60 -65 0 c-58 0 -65 -2 -65 -20 0 -16 7 -20 35 -20
31 0 35 -3 35 -25 0 -52 -106 -63 -142 -14 -27 36 -28 111 -1 147 27 36 92 43
122 13 24 -24 71 -28 71 -7 0 8 -11 27 -24 42 -20 24 -32 28 -87 31 -51 3 -70
0 -96 -16z"/>
<path d="M2630 755 l0 -155 115 0 115 0 0 25 c0 25 -1 25 -85 25 l-85 0 0 45
0 45 75 0 c73 0 75 1 75 25 0 24 -2 25 -75 25 l-75 0 0 35 0 34 83 3 c74 3 82
5 82 23 0 19 -8 20 -112 23 l-113 3 0 -156z"/>
</g>
</svg>
