<?xml version="1.0" standalone="no"?>
<!DOCTYPE svg PUBLIC "-//W3C//DTD SVG 20010904//EN"
 "http://www.w3.org/TR/2001/REC-SVG-20010904/DTD/svg10.dtd">
<svg version="1.0" xmlns="http://www.w3.org/2000/svg"
 width="512.000000pt" height="512.000000pt" viewBox="0 0 512.000000 512.000000"
 preserveAspectRatio="xMidYMid meet">

<g transform="translate(0.000000,512.000000) scale(0.100000,-0.100000)"
fill="#000000" stroke="none">
<path d="M1933 5060 c-96 -19 -169 -74 -210 -158 -27 -55 -28 -63 -31 -234
l-4 -178 -741 -2 -742 -3 -42 -23 c-58 -30 -111 -86 -137 -141 -20 -43 -21
-64 -24 -362 -3 -308 -3 -316 18 -342 29 -37 80 -37 109 -1 20 26 21 38 21
323 0 278 1 298 20 329 11 18 34 41 52 52 32 20 53 20 1101 20 l1067 0 0 -328
c0 -365 3 -387 64 -459 19 -21 58 -52 87 -68 l54 -30 343 -3 342 -3 0 -1561
c0 -1536 0 -1562 -20 -1603 -11 -22 -34 -49 -52 -60 -32 -20 -56 -20 -1493
-20 -1442 0 -1460 0 -1494 20 -18 11 -42 36 -52 55 -18 33 -19 91 -19 1542 0
828 -3 1514 -6 1523 -4 8 -20 23 -36 31 -25 13 -35 13 -59 3 -17 -6 -34 -20
-39 -30 -14 -25 -13 -3032 0 -3081 30 -105 125 -189 237 -207 49 -9 471 -11
1508 -9 1628 3 1490 -4 1581 84 78 76 88 111 92 317 l4 177 154 0 c141 0 156
2 174 20 30 30 27 83 -6 109 -24 19 -40 21 -175 21 l-149 0 0 495 0 495 559 0
c550 0 559 0 585 21 36 28 36 80 0 108 -26 21 -35 21 -585 21 l-559 0 0 215 0
215 565 0 c552 0 565 0 585 20 22 22 26 60 10 90 -20 38 -56 40 -616 40 l-544
0 0 210 0 210 559 0 c550 0 559 0 585 21 34 27 36 77 3 107 l-23 22 -562 0
-562 0 0 215 0 215 565 0 c552 0 565 0 585 20 25 25 26 71 1 101 l-19 24 -614
3 -613 3 -420 419 -421 420 -327 0 -327 0 0 152 c0 172 13 217 72 253 32 20
55 20 1098 20 l1065 0 5 -345 c5 -330 6 -347 27 -385 27 -51 85 -106 143 -136
44 -24 50 -24 383 -27 l337 -3 0 -1565 c0 -1700 4 -1589 -55 -1644 l-27 -25
-428 -5 c-395 -5 -429 -6 -448 -23 -11 -10 -22 -26 -25 -36 -7 -29 19 -80 45
-86 13 -3 217 -5 453 -3 424 3 431 3 472 26 58 30 111 86 137 141 l21 46 3
1640 2 1639 -470 471 -470 470 -1102 1 c-607 1 -1122 -2 -1145 -6z m2671 -888
c-288 -3 -307 1 -351 67 -22 33 -23 40 -23 300 l0 266 315 -315 315 -315 -256
-3z m-1695 -570 c-389 -4 -369 -23 -369 363 l0 270 315 -315 315 -315 -261 -3z"/>
<path d="M542 3047 c-31 -33 -29 -80 4 -106 27 -21 28 -21 1171 -21 l1144 0
24 25 c14 13 25 36 25 50 0 14 -11 37 -25 50 l-24 25 -1149 0 -1149 0 -21 -23z"/>
<path d="M573 2493 c-50 -10 -70 -86 -33 -123 20 -20 33 -20 1175 -20 l1154 0
21 22 c37 40 22 98 -31 117 -23 8 -356 11 -1148 10 -614 -1 -1126 -4 -1138 -6z"/>
<path d="M546 1899 c-36 -28 -36 -80 0 -108 27 -21 28 -21 1171 -21 l1144 0
24 25 c14 13 25 36 25 50 0 14 -11 37 -25 50 l-24 25 -1144 0 c-1143 0 -1144
0 -1171 -21z"/>
<path d="M564 1336 c-48 -21 -60 -80 -24 -116 20 -20 33 -20 1175 -20 l1154 0
21 22 c37 40 22 98 -31 117 -51 18 -2254 15 -2295 -3z"/>
</g>
</svg>
